<svg xmlns="http://www.w3.org/2000/svg" width="36" height="36" viewBox="0 0 36 36">
  <defs>
    <mask id="m" maskUnits="userSpaceOnUse" x="0" y="0" width="36" height="36"><rect width="36" height="36" fill="#fff"/><path d="M 21 22 h 13 a 2 2 0 0 1 2 2 v 7 a 2 2 0 0 1 -2 2 h -8 l -3.5 3 v -3 h -1.5 a 2 2 0 0 1 -2 -2 v -7 a 2 2 0 0 1 2 -2 z" fill="#000" stroke="#000" stroke-width="3.2" stroke-linejoin="round"/></mask>
    <mask id="b" maskUnits="userSpaceOnUse" x="0" y="0" width="36" height="36"><rect width="36" height="36" fill="#fff"/><circle cx="24.5" cy="27.5" r="1.15" fill="#000"/><circle cx="27.5" cy="27.5" r="1.15" fill="#000"/><circle cx="30.5" cy="27.5" r="1.15" fill="#000"/></mask>
  </defs>
  <g mask="url(#m)"><circle cx="18.0" cy="18.0" r="12.0" fill="none" stroke="#000" stroke-width="2.4"/><circle cx="18.00" cy="6.00" r="3.6" fill="#000"/><circle cx="7.61" cy="24.00" r="3.6" fill="#000"/><circle cx="28.39" cy="24.00" r="3.6" fill="#000"/></g><path d="M 21 22 h 13 a 2 2 0 0 1 2 2 v 7 a 2 2 0 0 1 -2 2 h -8 l -3.5 3 v -3 h -1.5 a 2 2 0 0 1 -2 -2 v -7 a 2 2 0 0 1 2 -2 z" fill="#000" mask="url(#b)"/>
</svg>
